# xmcd CD database file
#
# Track frame offsets:
#	151
#	19077
#	35153
#	56508
#	70224
#	96434
#	113044
#	126923
#	151665
#	168154
#	188862
#	205269
#
# Disc length: 2898 seconds
#
# Revision: 0
# Processed by: cddbd v1.5.2PL0 Copyright (c) Steve Scherf et al.
# Submitted via: CDex 1.51
#
DISCID=a10b500c
DTITLE=Mick Abrahams - See My Way
DYEAR=2000
DGENRE=Blues
TTITLE0=What Kinda Fool
TTITLE1=Blue Cafe
TTITLE2=Ain't No Smoke
TTITLE3=Nothing But Everything
TTITLE4=Dreaming
TTITLE5=They Don't Make 'Em Like They Used To 
TTITLE6=Mercy Mercy
TTITLE7=Heartbreak Blues
TTITLE8=Ayres and Graces
TTITLE9=See My Way
TTITLE10=Chettishes
TTITLE11=One Night
EXTD=YEAR: 2000
EXTT0=
EXTT1=
EXTT2=
EXTT3=
EXTT4=
EXTT5=
EXTT6=
EXTT7=
EXTT8=
EXTT9=
EXTT10=
EXTT11=
PLAYORDER=
